<?xml version="1.0" encoding="UTF-8" standalone="no"?><!DOCTYPE svg PUBLIC "-//W3C//DTD SVG 1.1//EN" "http://www.w3.org/Graphics/SVG/1.1/DTD/svg11.dtd"><svg width="100%" height="100%" viewBox="0 0 48 48" version="1.1" xmlns="http://www.w3.org/2000/svg" xmlns:xlink="http://www.w3.org/1999/xlink" xml:space="preserve" style="fill-rule:evenodd;clip-rule:evenodd;stroke-linejoin:round;stroke-miterlimit:1.41421;"><path id="Atom" d="M11.156,15.949c-0.157,-0.674 -0.296,-1.353 -0.412,-2.036c-0.12,-0.701 -0.215,-1.406 -0.278,-2.115c-0.049,-0.553 -0.078,-1.109 -0.08,-1.664c-0.001,-0.448 0.014,-0.896 0.052,-1.342c0.029,-0.348 0.073,-0.696 0.132,-1.041c0.049,-0.279 0.108,-0.557 0.18,-0.831c0.053,-0.203 0.113,-0.403 0.182,-0.601c0.051,-0.149 0.106,-0.296 0.167,-0.441c0.032,-0.079 0.066,-0.156 0.102,-0.233c0.246,-0.536 0.565,-1.042 0.968,-1.474c0.065,-0.069 0.132,-0.136 0.201,-0.202c0.077,-0.072 0.156,-0.141 0.237,-0.208c0.094,-0.075 0.191,-0.147 0.291,-0.214c0.13,-0.088 0.266,-0.168 0.407,-0.238c0.106,-0.053 0.215,-0.1 0.325,-0.142c0.082,-0.03 0.165,-0.057 0.248,-0.081c0.258,-0.076 0.522,-0.127 0.79,-0.154c0.097,-0.01 0.194,-0.017 0.292,-0.021c0.052,-0.002 0.105,-0.003 0.157,-0.004c0.022,0 0.044,0 0.067,0c0.044,0 0.089,0.001 0.133,0.002c0.089,0.003 0.177,0.008 0.266,0.015c0.383,0.031 0.763,0.101 1.135,0.202c0.449,0.12 0.886,0.284 1.309,0.476c0.155,0.07 0.308,0.144 0.46,0.221c0.21,0.108 0.417,0.221 0.62,0.341c0.271,0.159 0.537,0.328 0.797,0.505c0.324,0.221 0.64,0.454 0.947,0.7c0.113,0.09 0.225,0.182 0.335,0.276c0.088,0.075 0.176,0.152 0.261,0.23l0.004,0.004c0.042,0.049 0.09,0.094 0.127,0.147c0.073,0.108 0.121,0.231 0.141,0.361c0.01,0.064 0.012,0.129 0.007,0.194c-0.01,0.13 -0.049,0.257 -0.114,0.37c-0.033,0.056 -0.072,0.109 -0.116,0.156c-0.044,0.048 -0.094,0.09 -0.147,0.127c-0.054,0.037 -0.112,0.067 -0.173,0.091c-0.121,0.047 -0.252,0.067 -0.382,0.057c-0.13,-0.01 -0.257,-0.049 -0.37,-0.114c-0.056,-0.032 -0.104,-0.077 -0.156,-0.116c-0.015,-0.013 -0.029,-0.026 -0.044,-0.04c-0.144,-0.128 -0.292,-0.252 -0.442,-0.373c-0.194,-0.155 -0.392,-0.305 -0.594,-0.45c-0.266,-0.19 -0.539,-0.372 -0.819,-0.542c-0.24,-0.145 -0.484,-0.281 -0.734,-0.407c-0.194,-0.097 -0.391,-0.188 -0.592,-0.27c-0.161,-0.066 -0.325,-0.127 -0.491,-0.181c-0.136,-0.044 -0.273,-0.084 -0.412,-0.117c-0.109,-0.027 -0.218,-0.05 -0.329,-0.069c-0.382,-0.065 -0.777,-0.082 -1.16,-0.015c-0.092,0.016 -0.182,0.036 -0.271,0.062c-0.04,0.012 -0.081,0.024 -0.121,0.038c-0.028,0.01 -0.055,0.021 -0.082,0.032c-0.129,0.055 -0.251,0.126 -0.364,0.207c-0.11,0.079 -0.212,0.167 -0.307,0.262c-0.126,0.126 -0.24,0.264 -0.343,0.41c-0.114,0.162 -0.215,0.333 -0.304,0.509c-0.107,0.211 -0.198,0.431 -0.276,0.654c-0.102,0.294 -0.182,0.595 -0.246,0.899c-0.073,0.355 -0.124,0.715 -0.158,1.076c-0.036,0.389 -0.053,0.78 -0.054,1.171c-0.002,0.439 0.015,0.877 0.047,1.315c0.035,0.485 0.088,0.968 0.154,1.45c0.07,0.508 0.156,1.015 0.254,1.518c0.088,0.455 0.186,0.908 0.292,1.359c0.549,-0.083 1.1,-0.155 1.652,-0.217c0.76,-0.085 1.523,-0.151 2.287,-0.201c0.77,-0.05 1.541,-0.083 2.312,-0.102c0.041,-0.001 0.081,-0.002 0.122,-0.003c0.459,-0.599 0.929,-1.189 1.411,-1.77c0.606,-0.732 1.231,-1.448 1.877,-2.145c0.604,-0.652 1.226,-1.286 1.869,-1.898c0.505,-0.48 1.024,-0.947 1.558,-1.396c0.5,-0.421 1.014,-0.826 1.544,-1.21c0.468,-0.341 0.949,-0.665 1.443,-0.967c0.436,-0.267 0.884,-0.516 1.343,-0.742c0.338,-0.167 0.684,-0.321 1.036,-0.459c0.325,-0.127 0.657,-0.239 0.994,-0.333c0.466,-0.13 0.944,-0.224 1.427,-0.264c0.103,-0.009 0.206,-0.015 0.31,-0.019c0.051,-0.001 0.102,-0.002 0.153,-0.003c0.021,0 0.041,0 0.061,0c0.051,0 0.101,0.001 0.151,0.002c0.11,0.004 0.219,0.01 0.328,0.02c0.308,0.029 0.614,0.086 0.91,0.175c0.145,0.044 0.287,0.096 0.426,0.155c0.166,0.071 0.327,0.154 0.481,0.247c0.21,0.126 0.408,0.272 0.59,0.435c0.13,0.115 0.251,0.239 0.365,0.37c0.083,0.097 0.162,0.197 0.237,0.3c0.055,0.076 0.106,0.153 0.156,0.231c0.306,0.483 0.521,1.019 0.67,1.569c0.022,0.079 0.042,0.158 0.061,0.238c0.024,0.103 0.046,0.206 0.067,0.31c0.026,0.135 0.049,0.271 0.069,0.407c0.026,0.175 0.046,0.351 0.063,0.526c0.022,0.236 0.036,0.472 0.043,0.708c0.01,0.31 0.009,0.619 -0.002,0.929c-0.015,0.408 -0.046,0.815 -0.091,1.22c-0.037,0.34 -0.084,0.679 -0.142,1.016c-0.021,0.125 -0.044,0.251 -0.068,0.376c-0.02,0.103 -0.042,0.207 -0.065,0.309l-0.002,0.007c-0.021,0.061 -0.036,0.125 -0.065,0.183c-0.057,0.117 -0.14,0.22 -0.242,0.301c-0.103,0.081 -0.222,0.138 -0.35,0.167c-0.063,0.014 -0.128,0.021 -0.193,0.021c-0.065,-0.001 -0.13,-0.008 -0.193,-0.023c-0.128,-0.03 -0.246,-0.088 -0.348,-0.17c-0.051,-0.04 -0.097,-0.087 -0.137,-0.138c-0.04,-0.051 -0.075,-0.106 -0.103,-0.165c-0.056,-0.118 -0.085,-0.247 -0.084,-0.378c0,-0.064 0.015,-0.128 0.022,-0.193c0.005,-0.02 0.01,-0.04 0.014,-0.061c0.038,-0.175 0.071,-0.351 0.101,-0.528c0.039,-0.228 0.072,-0.458 0.101,-0.688c0.073,-0.58 0.114,-1.165 0.116,-1.75c0,-0.127 -0.002,-0.253 -0.006,-0.38c-0.006,-0.201 -0.018,-0.401 -0.037,-0.601c-0.031,-0.332 -0.08,-0.663 -0.156,-0.987c-0.05,-0.215 -0.111,-0.427 -0.189,-0.634c-0.065,-0.175 -0.142,-0.346 -0.233,-0.509c-0.115,-0.208 -0.253,-0.403 -0.419,-0.574c-0.105,-0.108 -0.22,-0.205 -0.345,-0.29c-0.091,-0.062 -0.186,-0.117 -0.285,-0.164c-0.045,-0.022 -0.091,-0.042 -0.137,-0.06c-0.305,-0.122 -0.633,-0.177 -0.959,-0.188c-0.056,-0.002 -0.112,-0.003 -0.167,-0.003c-0.073,0.001 -0.146,0.003 -0.219,0.008c-0.1,0.006 -0.2,0.015 -0.3,0.027c-0.106,0.013 -0.212,0.029 -0.317,0.048c-0.148,0.027 -0.295,0.06 -0.44,0.097c-0.177,0.044 -0.352,0.096 -0.525,0.153c-0.228,0.075 -0.454,0.16 -0.677,0.253c-0.288,0.12 -0.572,0.252 -0.85,0.394c-0.355,0.181 -0.703,0.377 -1.043,0.585c-0.429,0.262 -0.846,0.543 -1.254,0.836c-0.508,0.367 -1.001,0.754 -1.481,1.156c-0.667,0.558 -1.308,1.146 -1.928,1.754c-0.7,0.686 -1.373,1.398 -2.024,2.13c-0.585,0.657 -1.152,1.331 -1.704,2.017c1.021,0.013 2.041,0.048 3.061,0.106c1.291,0.073 2.581,0.182 3.866,0.331c1.196,0.138 2.387,0.311 3.572,0.522c1.047,0.186 2.088,0.403 3.121,0.655c0.822,0.201 1.639,0.424 2.447,0.675c0.753,0.233 1.498,0.49 2.232,0.777c0.628,0.244 1.247,0.51 1.854,0.804c0.558,0.27 1.105,0.562 1.635,0.885c0.497,0.303 0.978,0.632 1.433,0.995c0.39,0.311 0.76,0.647 1.098,1.014c0.437,0.475 0.82,1.004 1.099,1.588c0.099,0.206 0.185,0.419 0.255,0.638c0.072,0.222 0.127,0.449 0.164,0.68c0.021,0.127 0.036,0.255 0.045,0.384c0.007,0.096 0.011,0.192 0.011,0.289c0,0.113 -0.005,0.227 -0.015,0.34c-0.019,0.204 -0.054,0.407 -0.107,0.606c-0.037,0.141 -0.082,0.281 -0.135,0.417c-0.039,0.099 -0.081,0.196 -0.127,0.292c-0.032,0.068 -0.066,0.135 -0.102,0.201c-0.27,0.496 -0.633,0.938 -1.039,1.329c-0.067,0.064 -0.136,0.128 -0.205,0.19c-0.091,0.081 -0.183,0.159 -0.277,0.236c-0.121,0.097 -0.244,0.192 -0.369,0.283c-0.161,0.118 -0.326,0.231 -0.494,0.34c-0.233,0.15 -0.471,0.292 -0.714,0.426c-0.319,0.177 -0.647,0.34 -0.979,0.493c-0.162,0.074 -0.326,0.145 -0.49,0.214c-0.101,0.041 -0.201,0.082 -0.303,0.122c-0.119,0.046 -0.238,0.091 -0.358,0.134c-0.076,0.027 -0.152,0.054 -0.229,0.079l-0.006,0.001c-0.063,0.013 -0.126,0.033 -0.191,0.039c-0.13,0.011 -0.261,-0.007 -0.383,-0.053c-0.122,-0.047 -0.232,-0.12 -0.322,-0.215c-0.044,-0.047 -0.084,-0.099 -0.117,-0.155c-0.033,-0.056 -0.06,-0.116 -0.08,-0.177c-0.02,-0.062 -0.033,-0.127 -0.038,-0.191c-0.012,-0.13 0.007,-0.261 0.053,-0.383c0.023,-0.061 0.053,-0.119 0.089,-0.173c0.072,-0.109 0.168,-0.2 0.28,-0.267c0.056,-0.033 0.119,-0.053 0.178,-0.08c0.016,-0.005 0.032,-0.01 0.049,-0.016c0.155,-0.052 0.309,-0.11 0.461,-0.17c0.196,-0.077 0.39,-0.158 0.582,-0.244c0.238,-0.107 0.473,-0.22 0.704,-0.34c0.216,-0.113 0.43,-0.232 0.638,-0.359c0.274,-0.166 0.541,-0.345 0.795,-0.541c0.215,-0.166 0.422,-0.344 0.613,-0.537c0.135,-0.136 0.261,-0.28 0.376,-0.433c0.1,-0.132 0.191,-0.272 0.268,-0.419c0.089,-0.169 0.159,-0.348 0.203,-0.534c0.029,-0.123 0.047,-0.249 0.052,-0.375c0.002,-0.073 0.001,-0.147 -0.004,-0.22c-0.005,-0.075 -0.013,-0.149 -0.024,-0.223c-0.037,-0.247 -0.107,-0.488 -0.204,-0.718c-0.087,-0.208 -0.195,-0.407 -0.317,-0.596c-0.072,-0.112 -0.149,-0.221 -0.23,-0.327c-0.099,-0.129 -0.205,-0.254 -0.315,-0.375c-0.129,-0.143 -0.266,-0.28 -0.407,-0.411c-0.17,-0.16 -0.348,-0.311 -0.531,-0.456c-0.24,-0.191 -0.488,-0.371 -0.743,-0.541c-0.334,-0.224 -0.678,-0.432 -1.029,-0.627c-0.441,-0.246 -0.894,-0.472 -1.353,-0.682c-0.618,-0.283 -1.248,-0.539 -1.887,-0.772c-0.46,-0.169 -0.924,-0.326 -1.391,-0.473c-0.493,-0.156 -0.989,-0.301 -1.488,-0.436c-1.093,-0.296 -2.197,-0.547 -3.308,-0.761c-1.272,-0.245 -2.553,-0.443 -3.838,-0.599c-1.395,-0.17 -2.795,-0.291 -4.198,-0.369c-0.979,-0.054 -1.958,-0.087 -2.938,-0.099c-0.431,-0.005 -0.861,-0.006 -1.292,-0.003c-0.395,0.53 -0.782,1.065 -1.161,1.605c-0.277,0.395 -0.55,0.792 -0.819,1.191c-0.166,0.247 -0.33,0.494 -0.493,0.743c-0.232,0.354 -0.459,0.71 -0.684,1.068c-0.489,0.783 -0.96,1.576 -1.412,2.381c0.029,0.073 0.059,0.146 0.089,0.218c0.263,0.643 0.538,1.28 0.826,1.912c0.708,1.555 1.489,3.078 2.344,4.558c0.759,1.316 1.576,2.6 2.453,3.84c0.431,0.609 0.876,1.208 1.337,1.795c0.436,0.555 0.886,1.099 1.351,1.63c0.435,0.498 0.884,0.985 1.348,1.457c0.391,0.398 0.793,0.786 1.206,1.161c0.445,0.403 0.903,0.791 1.377,1.159c0.43,0.333 0.874,0.65 1.334,0.941c0.319,0.202 0.646,0.392 0.982,0.565c0.297,0.152 0.601,0.29 0.912,0.408c0.223,0.085 0.449,0.159 0.68,0.217c0.201,0.052 0.405,0.092 0.611,0.116c0.159,0.018 0.319,0.026 0.479,0.021c0.133,-0.004 0.266,-0.018 0.397,-0.043c0.152,-0.03 0.301,-0.075 0.441,-0.14c0.125,-0.057 0.241,-0.129 0.35,-0.212c0.113,-0.087 0.217,-0.185 0.312,-0.291c0.026,-0.029 0.052,-0.058 0.077,-0.089c0.034,-0.04 0.067,-0.082 0.098,-0.124c0.037,-0.05 0.073,-0.101 0.107,-0.153c0.044,-0.066 0.086,-0.133 0.125,-0.202c0.05,-0.086 0.096,-0.174 0.14,-0.264c0.054,-0.11 0.104,-0.223 0.15,-0.337c0.056,-0.141 0.107,-0.284 0.153,-0.428c0.053,-0.166 0.1,-0.335 0.141,-0.505c0.055,-0.227 0.1,-0.457 0.138,-0.687c0.047,-0.29 0.081,-0.583 0.105,-0.876c0.027,-0.325 0.041,-0.652 0.046,-0.979c0.005,-0.449 -0.008,-0.898 -0.036,-1.347c-0.037,-0.586 -0.1,-1.17 -0.182,-1.752c-0.098,-0.694 -0.223,-1.385 -0.371,-2.071c-0.193,-0.899 -0.423,-1.791 -0.68,-2.674c-0.37,-1.269 -0.797,-2.52 -1.265,-3.756c-0.45,-1.186 -0.937,-2.358 -1.454,-3.516c-0.13,-0.291 -0.262,-0.582 -0.396,-0.871c-0.062,-0.135 -0.125,-0.269 -0.187,-0.403l-0.062,-0.184c-0.007,-0.065 -0.021,-0.129 -0.02,-0.194c0.001,-0.065 0.009,-0.13 0.024,-0.193c0.03,-0.127 0.089,-0.245 0.172,-0.346c0.041,-0.051 0.088,-0.097 0.139,-0.137c0.051,-0.039 0.107,-0.074 0.166,-0.101c0.058,-0.028 0.121,-0.049 0.184,-0.062c0.063,-0.014 0.129,-0.021 0.194,-0.02c0.13,0.001 0.259,0.032 0.376,0.09c0.117,0.058 0.219,0.142 0.3,0.245c0.069,0.088 0.096,0.155 0.14,0.248c0.038,0.082 0.076,0.164 0.114,0.246c0.138,0.297 0.273,0.595 0.407,0.893c0.447,0.998 0.872,2.005 1.272,3.023c0.264,0.674 0.516,1.352 0.755,2.035c0.216,0.614 0.42,1.233 0.611,1.855c0.321,1.043 0.607,2.096 0.845,3.161c0.188,0.841 0.346,1.689 0.465,2.543c0.091,0.656 0.159,1.315 0.196,1.976c0.029,0.517 0.04,1.036 0.026,1.553c-0.01,0.402 -0.034,0.803 -0.077,1.202c-0.033,0.317 -0.078,0.632 -0.136,0.946c-0.047,0.256 -0.104,0.512 -0.171,0.764c-0.049,0.184 -0.103,0.367 -0.164,0.548c-0.044,0.132 -0.092,0.263 -0.144,0.393c-0.042,0.106 -0.087,0.212 -0.134,0.316c-0.038,0.083 -0.077,0.165 -0.119,0.247c-0.242,0.478 -0.547,0.928 -0.926,1.309c-0.05,0.05 -0.102,0.099 -0.155,0.147c-0.071,0.065 -0.145,0.127 -0.221,0.186c-0.113,0.087 -0.231,0.169 -0.353,0.243c-0.156,0.094 -0.32,0.177 -0.49,0.246c-0.275,0.112 -0.563,0.189 -0.857,0.233c-0.455,0.069 -0.92,0.061 -1.375,-0.002c-0.26,-0.036 -0.517,-0.09 -0.77,-0.157c-0.294,-0.077 -0.583,-0.173 -0.866,-0.283c-0.323,-0.125 -0.639,-0.268 -0.948,-0.423c-0.338,-0.17 -0.669,-0.356 -0.992,-0.554c-0.398,-0.244 -0.785,-0.505 -1.162,-0.779c-0.445,-0.323 -0.876,-0.665 -1.296,-1.019c-0.467,-0.395 -0.919,-0.807 -1.36,-1.231c-0.455,-0.439 -0.897,-0.892 -1.326,-1.356c-0.789,-0.852 -1.537,-1.74 -2.249,-2.656c-0.819,-1.054 -1.591,-2.144 -2.32,-3.262c-0.735,-1.128 -1.425,-2.285 -2.072,-3.466c-0.695,-1.269 -1.339,-2.565 -1.932,-3.884c-0.096,-0.214 -0.191,-0.428 -0.284,-0.643c-0.091,0.178 -0.18,0.357 -0.269,0.536c-0.463,0.937 -0.898,1.889 -1.298,2.854c-0.359,0.868 -0.69,1.748 -0.986,2.64c-0.251,0.755 -0.476,1.519 -0.667,2.292c-0.136,0.55 -0.255,1.105 -0.352,1.663c-0.08,0.461 -0.145,0.925 -0.19,1.391c-0.033,0.339 -0.055,0.68 -0.063,1.02c-0.007,0.279 -0.005,0.559 0.009,0.838c0.01,0.214 0.028,0.428 0.053,0.641c0.021,0.169 0.046,0.338 0.078,0.506c0.025,0.126 0.052,0.251 0.084,0.375c0.026,0.098 0.053,0.195 0.084,0.292c0.024,0.074 0.049,0.148 0.077,0.22c0.021,0.058 0.044,0.115 0.068,0.171c0.134,0.315 0.31,0.616 0.541,0.87c0.03,0.033 0.061,0.064 0.092,0.095c0.045,0.044 0.091,0.086 0.14,0.126c0.072,0.06 0.149,0.116 0.228,0.166c0.124,0.077 0.255,0.142 0.392,0.194c0.079,0.03 0.16,0.055 0.242,0.077c0.175,0.048 0.355,0.077 0.537,0.092c0.192,0.016 0.386,0.015 0.579,0.002c0.228,-0.016 0.456,-0.049 0.68,-0.094c0.3,-0.062 0.596,-0.146 0.886,-0.245c0.347,-0.119 0.686,-0.26 1.017,-0.416c0.281,-0.132 0.557,-0.276 0.827,-0.428c0.266,-0.15 0.527,-0.308 0.783,-0.473c0.203,-0.131 0.403,-0.267 0.599,-0.408c0.069,-0.05 0.138,-0.1 0.206,-0.152c0.055,-0.04 0.109,-0.082 0.162,-0.124l0.001,-0.001c0.055,-0.035 0.106,-0.076 0.165,-0.105c0.117,-0.057 0.246,-0.087 0.377,-0.087c0.064,0 0.13,0.007 0.193,0.021c0.063,0.014 0.125,0.035 0.184,0.063c0.059,0.028 0.114,0.063 0.165,0.103c0.103,0.081 0.185,0.184 0.243,0.302c0.028,0.058 0.05,0.12 0.065,0.183c0.029,0.127 0.03,0.259 0.001,0.387c-0.028,0.127 -0.085,0.247 -0.166,0.349c-0.04,0.051 -0.091,0.092 -0.137,0.138c-0.011,0.009 -0.023,0.018 -0.034,0.027c-0.182,0.143 -0.369,0.279 -0.558,0.412c-0.241,0.169 -0.486,0.331 -0.736,0.487c-0.324,0.203 -0.655,0.395 -0.993,0.575c-0.309,0.164 -0.624,0.317 -0.945,0.457c-0.434,0.19 -0.879,0.355 -1.335,0.485c-0.384,0.11 -0.777,0.194 -1.174,0.244c-0.283,0.035 -0.57,0.052 -0.856,0.047c-0.306,-0.005 -0.613,-0.036 -0.914,-0.097c-0.237,-0.049 -0.471,-0.115 -0.697,-0.202c-0.139,-0.053 -0.275,-0.114 -0.407,-0.183c-0.234,-0.122 -0.457,-0.268 -0.662,-0.435c-0.146,-0.118 -0.283,-0.247 -0.41,-0.385c-0.092,-0.099 -0.179,-0.203 -0.262,-0.31c-0.057,-0.075 -0.112,-0.153 -0.165,-0.231c-0.04,-0.06 -0.078,-0.12 -0.115,-0.181c-0.272,-0.449 -0.47,-0.941 -0.611,-1.445c-0.023,-0.081 -0.044,-0.163 -0.064,-0.244c-0.026,-0.109 -0.05,-0.218 -0.072,-0.328c-0.026,-0.132 -0.05,-0.265 -0.07,-0.398c-0.027,-0.178 -0.048,-0.357 -0.066,-0.536c-0.023,-0.244 -0.038,-0.489 -0.045,-0.734c-0.01,-0.31 -0.008,-0.621 0.004,-0.932c0.016,-0.419 0.049,-0.837 0.096,-1.254c0.064,-0.57 0.154,-1.137 0.264,-1.7c0.148,-0.764 0.333,-1.521 0.545,-2.27c0.284,-1.005 0.617,-1.996 0.986,-2.973c0.413,-1.093 0.872,-2.168 1.368,-3.226c0.45,-0.961 0.93,-1.908 1.436,-2.841c-0.032,-0.084 -0.065,-0.168 -0.097,-0.252c-0.457,-1.185 -0.886,-2.381 -1.277,-3.59c-0.239,-0.741 -0.464,-1.487 -0.671,-2.239c-0.101,0.02 -0.201,0.04 -0.301,0.061c-0.717,0.147 -1.43,0.318 -2.134,0.518c-0.538,0.154 -1.071,0.324 -1.596,0.515c-0.431,0.158 -0.856,0.329 -1.274,0.518c-0.319,0.144 -0.633,0.298 -0.941,0.464c-0.258,0.139 -0.511,0.287 -0.758,0.445c-0.198,0.127 -0.391,0.26 -0.579,0.4c-0.141,0.106 -0.279,0.217 -0.413,0.332c-0.223,0.191 -0.434,0.397 -0.625,0.619c-0.15,0.174 -0.288,0.359 -0.406,0.556c-0.092,0.153 -0.171,0.314 -0.231,0.482c-0.048,0.132 -0.083,0.268 -0.101,0.406c-0.007,0.055 -0.012,0.109 -0.013,0.163c-0.002,0.049 -0.001,0.098 0.001,0.146c0.003,0.073 0.009,0.146 0.019,0.219c0.032,0.245 0.101,0.483 0.196,0.71c0.067,0.159 0.146,0.313 0.235,0.461c0.102,0.17 0.217,0.332 0.34,0.488c0.169,0.214 0.355,0.415 0.55,0.606c0.226,0.219 0.465,0.425 0.714,0.618c0.207,0.162 0.421,0.316 0.64,0.462c0.223,0.149 0.451,0.291 0.684,0.426c0.172,0.099 0.346,0.195 0.522,0.286c0.069,0.035 0.139,0.07 0.208,0.104c0.051,0.024 0.102,0.049 0.153,0.072l0.002,0.001c0.056,0.033 0.116,0.059 0.168,0.098c0.105,0.079 0.19,0.179 0.25,0.295c0.061,0.116 0.094,0.244 0.098,0.375c0.002,0.064 -0.004,0.13 -0.016,0.194c-0.013,0.063 -0.033,0.126 -0.059,0.185c-0.026,0.059 -0.06,0.116 -0.098,0.168c-0.039,0.052 -0.084,0.1 -0.134,0.142c-0.099,0.084 -0.217,0.145 -0.343,0.178c-0.127,0.033 -0.259,0.037 -0.387,0.012c-0.063,-0.013 -0.124,-0.04 -0.185,-0.059c-0.013,-0.006 -0.026,-0.012 -0.039,-0.018c-0.205,-0.094 -0.406,-0.196 -0.605,-0.303c-0.251,-0.134 -0.497,-0.276 -0.74,-0.425c-0.324,-0.2 -0.641,-0.412 -0.947,-0.638c-0.196,-0.146 -0.388,-0.296 -0.574,-0.454c-0.139,-0.116 -0.274,-0.236 -0.406,-0.36c-0.1,-0.094 -0.198,-0.19 -0.293,-0.288c-0.073,-0.075 -0.144,-0.151 -0.214,-0.229c-0.417,-0.462 -0.782,-0.976 -1.046,-1.542c-0.038,-0.08 -0.073,-0.161 -0.106,-0.243c-0.042,-0.104 -0.081,-0.209 -0.115,-0.316c-0.047,-0.144 -0.086,-0.29 -0.118,-0.438c-0.046,-0.213 -0.075,-0.429 -0.088,-0.646c-0.007,-0.126 -0.009,-0.253 -0.003,-0.38c0.006,-0.151 0.023,-0.302 0.05,-0.451c0.06,-0.341 0.17,-0.671 0.318,-0.984c0.106,-0.227 0.232,-0.446 0.373,-0.654c0.171,-0.254 0.363,-0.493 0.57,-0.719c0.277,-0.302 0.58,-0.579 0.899,-0.836c0.384,-0.309 0.792,-0.589 1.213,-0.845c0.389,-0.236 0.79,-0.452 1.199,-0.651c0.464,-0.227 0.938,-0.431 1.419,-0.619c0.53,-0.206 1.067,-0.391 1.61,-0.558c0.595,-0.183 1.197,-0.345 1.803,-0.489c0.406,-0.097 0.815,-0.185 1.224,-0.267Zm12.875,5.949c1.475,0 2.672,1.198 2.672,2.672c0,1.475 -1.197,2.672 -2.672,2.672c-1.474,0 -2.672,-1.197 -2.672,-2.672c0,-1.474 1.198,-2.672 2.672,-2.672Zm-6.108,-4.987c-0.145,0.007 -0.291,0.014 -0.437,0.022c-1.095,0.06 -2.188,0.153 -3.276,0.288c-0.301,0.037 -0.602,0.078 -0.902,0.122c0.059,0.209 0.119,0.419 0.18,0.628c0.202,0.687 0.419,1.369 0.647,2.048c0.196,0.581 0.4,1.16 0.612,1.735c0.27,-0.454 0.546,-0.906 0.828,-1.354c0.217,-0.345 0.438,-0.688 0.661,-1.029c0.183,-0.279 0.368,-0.556 0.555,-0.832c0.37,-0.547 0.747,-1.09 1.132,-1.628Z" style="fill:#66595c;"/></svg>