<?xml version="1.0" encoding="UTF-8" standalone="no"?>
<!DOCTYPE svg PUBLIC "-//W3C//DTD SVG 1.1//EN" "http://www.w3.org/Graphics/SVG/1.1/DTD/svg11.dtd">
<svg width="100%" height="100%" viewBox="0 0 256 256" version="1.1" xmlns="http://www.w3.org/2000/svg" xmlns:xlink="http://www.w3.org/1999/xlink" xml:space="preserve" style="fill-rule:evenodd;clip-rule:evenodd;stroke-linejoin:round;stroke-miterlimit:1.41421;">
    <g id="Brackets" transform="matrix(1.1135,0,0,1.1135,-14.5284,-11.8017)">
        <path id="Blu-BG" d="M241.753,61.178C241.753,48.082 236.551,35.522 227.29,26.261C218.03,17.001 205.47,11.798 192.373,11.798C154.256,11.798 101.762,11.798 63.641,11.798C50.541,11.798 37.977,17.002 28.714,26.265C19.451,35.528 14.247,48.092 14.247,61.192C14.247,99.313 14.247,151.807 14.247,189.925C14.247,203.021 19.449,215.581 28.71,224.841C37.97,234.102 50.53,239.304 63.627,239.304C101.749,239.304 154.251,239.304 192.373,239.304C205.47,239.304 218.03,234.102 227.29,224.841C236.551,215.581 241.753,203.021 241.753,189.925C241.753,151.802 241.753,99.3 241.753,61.178Z" style="fill:rgb(33,162,222);"/>
        <g id="White-BG" transform="matrix(0.772994,0,0,0.772994,29.0568,28.5009)">
            <path d="M241.753,55.947C241.753,31.564 221.987,11.798 197.605,11.798C157.446,11.798 98.485,11.798 58.343,11.798C46.648,11.798 35.432,16.444 27.162,24.714C18.893,32.983 14.247,44.199 14.247,55.894C14.247,96.037 14.247,154.997 14.247,195.156C14.247,219.538 34.013,239.304 58.395,239.304C98.537,239.304 157.463,239.304 197.605,239.304C221.987,239.304 241.753,219.538 241.753,195.156C241.753,155.014 241.753,96.088 241.753,55.947Z" style="fill:white;"/>
        </g>
        <g id="Left-Bracket" transform="matrix(1,0,0,1,0.111304,0.77913)">
            <path d="M58.323,66.115L58.323,183.652L119.986,183.652L119.986,158.052L86.15,158.052L86.15,91.937L119.986,91.937L119.986,65.892L58.323,66.115Z" style="fill:rgb(74,77,74);"/>
        </g>
        <g id="Right-Bracket" transform="matrix(-1,0,0,1,255.889,0.77913)">
            <path d="M58.323,66.115L58.323,183.652L119.986,183.652L119.986,158.052L86.15,158.052L86.15,91.937L119.986,91.937L119.986,65.892L58.323,66.115Z" style="fill:rgb(74,77,74);"/>
        </g>
    </g>
</svg>
