<?xml version="1.0" encoding="UTF-8" standalone="no"?>
<!DOCTYPE svg PUBLIC "-//W3C//DTD SVG 1.1//EN" "http://www.w3.org/Graphics/SVG/1.1/DTD/svg11.dtd">
<svg width="100%" height="100%" viewBox="0 0 256 256" version="1.1" xmlns="http://www.w3.org/2000/svg" xmlns:xlink="http://www.w3.org/1999/xlink" xml:space="preserve" style="fill-rule:evenodd;clip-rule:evenodd;stroke-linejoin:round;stroke-miterlimit:1.41421;">
    <g id="CSS" transform="matrix(13.8839,0,0,13.5947,-203.684,-186.72)">
        <g transform="matrix(1,0,0,1,-17.4063,0.0215692)">
            <path d="M34.745,17.472L35.931,30.909L41.237,32.397L46.629,30.909L47.837,17.472L34.745,17.472Z" style="fill:rgb(0,125,198);"/>
        </g>
        <g transform="matrix(1,0,0,1,-17.4063,0.0215692)">
            <path d="M41.28,18.615L41.28,31.254L45.659,30.068L46.673,18.593L41.28,18.615Z" style="fill:rgb(0,143,213);"/>
        </g>
        <path id="_3" d="M19.927,21.936L19.689,20.319L27.994,20.34L27.994,21.958L24.197,23.489L27.692,23.489L27.239,28.515L23.939,29.593L20.509,28.58L20.293,26.056L21.911,26.056L22.105,27.286L23.96,27.717L25.686,27.372L25.88,25.129L20.207,25.129L19.97,23.619L23.788,21.936L19.927,21.936Z" style="fill:rgb(236,237,237);"/>
        <path id="_31" d="M22.127,14.689L20.887,14.689L20.887,15.554L22.106,15.554L22.106,16.377L20.007,16.377L20.007,13.87L22.127,13.87L22.127,14.689ZM24.961,13.877L24.952,14.734L24.298,14.743L24.952,15.583L24.952,16.36L22.982,16.36L22.973,15.565L23.618,15.547L22.929,14.549L22.929,13.877L24.961,13.877ZM27.797,13.877L27.788,14.734L27.134,14.743L27.788,15.583L27.788,16.36L25.818,16.36L25.809,15.565L26.454,15.547L25.765,14.549L25.765,13.877L27.797,13.877Z" style="fill:rgb(236,237,237);"/>
    </g>
</svg>
