<?xml version="1.0" encoding="UTF-8" standalone="no"?><!DOCTYPE svg PUBLIC "-//W3C//DTD SVG 1.1//EN" "http://www.w3.org/Graphics/SVG/1.1/DTD/svg11.dtd"><svg width="100%" height="100%" viewBox="0 0 48 48" version="1.1" xmlns="http://www.w3.org/2000/svg" xmlns:xlink="http://www.w3.org/1999/xlink" xml:space="preserve" style="fill-rule:evenodd;clip-rule:evenodd;stroke-linejoin:round;stroke-miterlimit:1.41421;"><path id="Git" d="M17.521,5.474l4.429,-4.428c1.101,-1.102 2.89,-1.102 3.992,0l20.958,20.958c1.102,1.102 1.102,2.89 0,3.992l-20.958,20.958c-1.102,1.102 -2.891,1.102 -3.992,0l-20.959,-20.958c-1.101,-1.102 -1.101,-2.89 0,-3.992l14.398,-14.398l5.294,5.295c-0.188,0.443 -0.293,0.93 -0.293,1.442c0,1.523 0.927,2.832 2.247,3.392l0,13.07c-1.32,0.561 -2.247,1.869 -2.247,3.393c0,2.033 1.651,3.684 3.684,3.684c2.033,0 3.684,-1.651 3.684,-3.684c0,-1.468 -0.861,-2.737 -2.105,-3.329l0,-12.999l4.956,4.957c-0.187,0.439 -0.291,0.922 -0.291,1.429c0,2.01 1.631,3.641 3.641,3.641c2.009,0 3.641,-1.631 3.641,-3.641c0,-2.01 -1.632,-3.641 -3.641,-3.641c-0.391,0 -0.768,0.062 -1.121,0.176l-5.272,-5.273c0.124,-0.369 0.192,-0.764 0.192,-1.175c0,-2.034 -1.651,-3.684 -3.684,-3.684c-0.411,0 -0.807,0.067 -1.176,0.192l-5.377,-5.377Z" style="fill:#f05133;"/></svg>