<?xml version="1.0" encoding="UTF-8" standalone="no"?>
<!DOCTYPE svg PUBLIC "-//W3C//DTD SVG 1.1//EN" "http://www.w3.org/Graphics/SVG/1.1/DTD/svg11.dtd">
<svg width="100%" height="100%" viewBox="0 0 256 256" version="1.1" xmlns="http://www.w3.org/2000/svg" xmlns:xlink="http://www.w3.org/1999/xlink" xml:space="preserve" style="fill-rule:evenodd;clip-rule:evenodd;stroke-linejoin:round;stroke-miterlimit:1.41421;">
    <g id="HTML" transform="matrix(13.8839,0,0,13.5947,-203.684,-186.72)">
        <g transform="matrix(1,0,0,1,-17.4063,0.0215692)">
            <path d="M34.745,17.472L35.931,30.909L41.237,32.397L46.629,30.909L47.837,17.472L34.745,17.472Z" style="fill:rgb(241,89,49);"/>
        </g>
        <g transform="matrix(1,0,0,1,-17.4063,0.0215692)">
            <path d="M41.28,18.615L41.28,31.254L45.659,30.068L46.673,18.593L41.28,18.615Z" style="fill:rgb(244,121,51);"/>
        </g>
        <g transform="matrix(1,0,0,1,17.2768,0)">
            <path d="M8.608,25.251L2.954,25.251L2.482,20.256L10.728,20.256L10.571,21.905L4.289,21.905L4.446,23.586L10.445,23.586L9.99,28.643L6.597,29.601L3.236,28.643L3.016,26.036L4.666,26.036L4.775,27.34L6.629,27.858L8.419,27.324L8.608,25.251ZM8.663,13.87L9.548,13.87L9.548,16.363L8.711,16.363L8.711,15.109L8.124,15.993L7.562,15.125L7.562,16.379L6.757,16.379L6.757,13.87L7.602,13.878L8.141,14.739L8.663,13.87ZM2.085,16.363L1.273,16.363L1.273,13.878L2.093,13.87L2.093,14.699L2.873,14.699L2.873,13.878L3.694,13.878L3.694,16.371L2.873,16.371L2.873,15.503L2.085,15.503L2.085,16.363ZM4.08,14.675L4.08,13.878L6.363,13.887L6.363,14.691L5.607,14.691L5.607,16.371L4.811,16.371L4.811,14.675L4.08,14.675ZM9.99,13.887L9.99,16.363L11.968,16.363L11.968,15.551L10.802,15.551L10.802,13.87L9.99,13.887Z" style="fill:rgb(236,237,237);"/>
        </g>
    </g>
</svg>
