<?xml version="1.0" encoding="UTF-8" standalone="no"?>
<!DOCTYPE svg PUBLIC "-//W3C//DTD SVG 1.1//EN" "http://www.w3.org/Graphics/SVG/1.1/DTD/svg11.dtd">
<svg width="100%" height="100%" viewBox="0 0 256 256" version="1.1" xmlns="http://www.w3.org/2000/svg" xmlns:xlink="http://www.w3.org/1999/xlink" xml:space="preserve" style="fill-rule:evenodd;clip-rule:evenodd;stroke-linejoin:round;stroke-miterlimit:1.41421;">
    <g id="JavaScript" transform="matrix(13.8839,0,0,13.5947,-445.208,-186.72)">
        <path d="M34.745,17.472L35.931,30.909L41.237,32.397L46.629,30.909L47.837,17.472L34.745,17.472Z" style="fill:rgb(245,130,51);"/>
        <path d="M41.28,18.615L41.28,31.254L45.659,30.068L46.673,18.593L41.28,18.615Z" style="fill:rgb(249,157,52);"/>
        <path d="M45.098,23.533L44.667,28.601L41.582,29.486L41.582,27.782L43.48,27.242L43.674,25.085L41.582,25.193L41.604,20.254L45.421,20.232L45.271,21.785L43.114,21.829L43.049,23.533L45.098,23.533ZM40.914,20.232L40.914,29.464L37.937,28.623L37.678,26.013L38.757,26.229L38.821,27.091L39.77,27.372L39.533,20.232L40.914,20.232ZM40.914,16.35L38.951,16.35L38.951,15.185L39.727,15.185L39.727,15.53L40.094,15.53L40.072,13.87L40.914,13.87L40.914,16.35ZM42.337,15.509L41.625,14.538L41.625,13.848L41.625,13.87L43.653,13.87L43.653,14.711L43.027,14.711L43.631,15.617L43.631,16.328L41.668,16.328L41.668,15.509L42.337,15.509Z" style="fill:rgb(236,237,237);"/>
    </g>
</svg>
