<?xml version="1.0" encoding="UTF-8" standalone="no"?><!DOCTYPE svg PUBLIC "-//W3C//DTD SVG 1.1//EN" "http://www.w3.org/Graphics/SVG/1.1/DTD/svg11.dtd"><svg width="100%" height="100%" viewBox="0 0 256 256" version="1.1" xmlns="http://www.w3.org/2000/svg" xmlns:xlink="http://www.w3.org/1999/xlink" xml:space="preserve" style="fill-rule:evenodd;clip-rule:evenodd;stroke-linejoin:round;stroke-miterlimit:1.41421;"><path id="LinkedIn" d="M219.989,2.5c17.875,0 32.386,14.512 32.386,32.386l0,184.353c0,17.874 -14.512,32.386 -32.386,32.386l-184.353,0c-17.874,0 -32.386,-14.512 -32.386,-32.386l0,-184.353c0,-17.874 14.511,-32.386 32.386,-32.386l184.353,0Zm-138.239,206.75l0,-109.5l-33.75,0l0,109.5l33.75,0Zm127.25,0l0,-73.75c0,-13.833 -6.571,-38.786 -38.683,-38.786c-24.177,0 -32.948,17.554 -33.567,18.86l0,-15.824l-32.75,0l0,109.5l32.75,0l0,-61.134c0.485,-6.099 5.99,-20.973 20.964,-20.973c18.14,0 18.535,21.336 18.536,21.381l0,60.726l32.75,0Zm-143.625,-164.25c11.107,0 20.125,9.018 20.125,20.125c0,11.107 -9.018,20.125 -20.125,20.125c-11.107,0 -20.125,-9.018 -20.125,-20.125c0,-11.107 9.018,-20.125 20.125,-20.125Z" style="fill:#eceded;"/></svg>