<?xml version="1.0" encoding="UTF-8" standalone="no"?>
<!DOCTYPE svg PUBLIC "-//W3C//DTD SVG 1.1//EN" "http://www.w3.org/Graphics/SVG/1.1/DTD/svg11.dtd">
<svg width="100%" height="100%" viewBox="0 0 256 256" version="1.1" xmlns="http://www.w3.org/2000/svg" xmlns:xlink="http://www.w3.org/1999/xlink" xml:space="preserve" style="fill-rule:evenodd;clip-rule:evenodd;stroke-linejoin:round;stroke-miterlimit:1.41421;">
    <g id="Perforce" transform="matrix(0.952056,0,0,0.952056,-15.2051,-16.0585)">
        <path id="Upper" d="M260.274,79.222C264.947,81.909 267.833,86.89 267.833,92.288C267.833,117.16 267.833,187.628 267.833,211.015C267.833,215.74 265.285,220.098 261.166,222.414C240.414,234.084 175.991,271.053 155.987,282.538C152.28,284.666 147.72,284.661 144.017,282.525C121.045,269.273 39.773,222.391 39.773,222.391C39.166,222.057 38.593,221.679 38.056,221.262L260.274,79.222Z" style="fill:url(#_Linear1);"/>
        <path id="Lower" d="M40.174,222.623L39.773,222.391C35.595,220.092 33,215.702 33,210.934C33,187.491 33,117.29 33,92.372C33,86.885 35.982,81.831 40.785,79.179C62.889,66.971 124.61,31.344 144.054,20.105C147.739,17.976 152.276,17.958 155.978,20.058C178.935,33.081 260.157,79.155 260.157,79.155C260.694,79.458 261.208,79.79 261.696,80.15L40.174,222.623Z" style="fill:url(#_Linear2);"/>
        <path id="Main" d="M115.082,36.82L267.833,136.468L267.833,211.015C267.833,215.74 265.285,220.098 261.166,222.414C250.789,228.249 229.492,240.411 208.29,252.549L33,137.65L33,92.372C33,86.885 35.982,81.831 40.785,79.179C55.816,70.878 89.164,51.748 115.082,36.82Z" style="fill:url(#_Linear3);"/>
        <path id="V" d="M72,83.478L134.348,237.913L168,237.913L231.391,83.739L190.435,83.739L151.714,185.857L114,83.571L72,83.478Z" style="fill:white;"/>
    </g>
    <defs>
        <linearGradient id="_Linear1" x1="0" y1="0" x2="1" y2="0" gradientUnits="userSpaceOnUse" gradientTransform="matrix(-58.9969,-84.2183,86.1444,-57.6778,206.352,241.024)"><stop offset="0" style="stop-color:rgb(237,134,39);stop-opacity:1"/><stop offset="1" style="stop-color:rgb(223,94,53);stop-opacity:1"/></linearGradient>
        <linearGradient id="_Linear2" x1="0" y1="0" x2="1" y2="0" gradientUnits="userSpaceOnUse" gradientTransform="matrix(57.8858,84.2867,-86.9868,56.089,102.589,55.8882)"><stop offset="0" style="stop-color:rgb(200,47,67);stop-opacity:1"/><stop offset="1" style="stop-color:rgb(221,87,58);stop-opacity:1"/></linearGradient>
        <linearGradient id="_Linear3" x1="0" y1="0" x2="1" y2="0" gradientUnits="userSpaceOnUse" gradientTransform="matrix(129.651,172.711,-170.961,130.978,110.219,44.846)"><stop offset="0" style="stop-color:rgb(209,68,85);stop-opacity:1"/><stop offset="1" style="stop-color:rgb(238,138,42);stop-opacity:1"/></linearGradient>
    </defs>
</svg>
