<?xml version="1.0" encoding="UTF-8" standalone="no"?><!DOCTYPE svg PUBLIC "-//W3C//DTD SVG 1.1//EN" "http://www.w3.org/Graphics/SVG/1.1/DTD/svg11.dtd"><svg width="100%" height="100%" viewBox="0 0 48 48" version="1.1" xmlns="http://www.w3.org/2000/svg" xmlns:xlink="http://www.w3.org/1999/xlink" xml:space="preserve" style="fill-rule:evenodd;clip-rule:evenodd;stroke-linejoin:round;stroke-miterlimit:1.41421;"><path id="Wordpress" d="M23.946,0.085c13.141,0 23.81,10.669 23.81,23.81c0,13.141 -10.669,23.81 -23.81,23.81c-13.141,0 -23.81,-10.669 -23.81,-23.81c0,-13.141 10.669,-23.81 23.81,-23.81Zm-6.031,44.272c1.913,0.555 3.937,0.853 6.031,0.853c2.49,0 4.882,-0.421 7.107,-1.196l-6.702,-18.208l-6.436,18.551Zm-13.534,-29.262c-1.229,2.683 -1.913,5.663 -1.913,8.8c0,8.489 5.011,15.825 12.254,19.252l-10.341,-28.052Zm38.446,-1.363c0.088,1.705 0.107,3.948 -0.32,5.746c-0.395,1.667 -6.591,19.456 -7.774,22.849c6.391,-3.694 10.691,-10.569 10.691,-18.432c0,-3.679 -0.941,-7.141 -2.597,-10.163Zm-4.456,-5.624c-3.813,-3.434 -8.875,-5.528 -14.425,-5.528c-7.503,0 -14.113,3.826 -17.954,9.618c0.255,0.032 1.837,0.172 7.109,-0.286c0.539,-0.047 1.008,0.281 1.008,0.914c0,0.633 -0.399,0.773 -0.68,0.82c-0.281,0.047 -2.555,0.211 -2.555,0.211l7.782,23.32l4.757,-14.179l-3.304,-9.117c0,0 -2.344,-0.141 -2.602,-0.258c-0.258,-0.117 -0.492,-0.352 -0.492,-0.821c0,-0.468 0.281,-0.843 0.633,-0.843c0.351,0 2.695,0.257 5.789,0.257c3.094,0 5.695,-0.257 6.07,-0.257c0.375,0 0.68,0.468 0.68,0.843c0,0.375 -0.305,0.774 -0.586,0.821c-0.281,0.047 -2.742,0.187 -2.742,0.187l7.804,23.227c0,0 2.532,-8.246 3.25,-10.684c0.661,-2.24 1.242,-5.929 -1.437,-9.687c-2.663,-3.735 -2.718,-7.974 1.895,-8.558Z" style="fill:#464646;"/></svg>